<?xml version="1.0" standalone="no"?>
<!DOCTYPE svg PUBLIC "-//W3C//DTD SVG 20010904//EN"
 "http://www.w3.org/TR/2001/REC-SVG-20010904/DTD/svg10.dtd">
<svg version="1.0" xmlns="http://www.w3.org/2000/svg"
 width="512.000000pt" height="512.000000pt" viewBox="0 0 512.000000 512.000000"
 preserveAspectRatio="xMidYMid meet">

<g transform="translate(0.000000,512.000000) scale(0.100000,-0.100000)"
fill="#000000" stroke="none">
<path d="M0 2554 l0 -1655 888 4 c782 3 895 5 956 20 344 83 596 325 687 662
32 115 32 335 0 450 -78 290 -288 523 -562 625 l-57 21 60 57 c111 105 205
265 242 412 27 104 31 250 11 355 -32 174 -102 310 -224 438 -126 132 -270
212 -446 248 -83 17 -148 19 -822 19 l-733 0 0 -1656z m1565 1417 c113 -37
184 -80 266 -161 83 -82 120 -138 156 -238 88 -241 17 -520 -175 -692 -68 -62
-213 -134 -296 -149 -38 -7 -287 -11 -683 -11 l-623 0 0 633 c0 349 3 637 7
641 4 4 293 6 643 4 632 -4 635 -4 705 -27z m257 -1490 c248 -64 446 -263 504
-508 21 -87 21 -239 0 -326 -58 -245 -256 -444 -504 -508 -71 -18 -117 -19
-844 -19 l-768 0 0 690 0 690 768 0 c727 0 773 -1 844 -19z"/>
<path d="M3090 4105 l0 -105 855 0 855 0 0 105 0 105 -855 0 -855 0 0 -105z"/>
<path d="M3850 3670 c-388 -38 -744 -312 -930 -713 -192 -416 -192 -918 0
-1334 157 -339 448 -599 765 -683 338 -89 677 -4 967 243 97 83 236 264 300
392 29 58 100 236 96 240 -2 1 -47 16 -101 33 l-98 30 -9 -22 c-106 -262 -189
-388 -348 -528 -221 -194 -525 -258 -794 -168 -368 123 -646 505 -702 968 l-7
52 1067 0 1067 0 -6 148 c-13 324 -89 571 -254 822 -234 356 -627 558 -1013
520z m278 -230 c323 -77 592 -351 711 -722 27 -86 61 -251 61 -300 0 -17 -52
-18 -955 -18 l-956 0 7 53 c61 501 380 902 789 992 93 21 246 18 343 -5z"/>
</g>
</svg>
